<svg width="13" height="13" viewBox="0 0 13 13" fill="none" xmlns="http://www.w3.org/2000/svg">
<path d="M4.75519 6.41691C4.95946 6.71251 4.8984 6.4662 4.8984 12.3582C4.8984 12.8855 5.49995 13.1873 5.92392 12.8719C7.73562 11.506 8.09759 11.3877 8.09759 10.7488C8.09759 6.4551 8.04755 6.69656 8.24079 6.41691L11.1828 2.41235H1.81323L4.75519 6.41691Z" fill="#FFC94F"/>
<path d="M12.2943 0.326523C12.1892 0.125176 11.983 0 11.756 0H1.24033C0.750168 0 0.461755 0.552932 0.742931 0.954687C0.745242 0.958547 0.711015 0.911701 1.25379 1.65039H11.7425C12.2051 1.02088 12.5143 0.748896 12.2943 0.326523Z" fill="#FFC94F"/>
</svg>
