<svg width="13" height="14" viewBox="0 0 13 14" fill="none" xmlns="http://www.w3.org/2000/svg">
<path d="M1.20473 11.0319H3.25936V12.7717C3.25936 12.8564 3.28678 12.9257 3.34194 12.9799C3.39695 13.0344 3.46728 13.0616 3.55295 13.0616H5.08465C5.16414 13.0616 5.23293 13.0344 5.29103 12.9799C5.34913 12.9257 5.37809 12.8564 5.37809 12.7717V11.0319H10.0101C10.0956 11.0319 10.1659 11.005 10.2211 10.9504C10.2763 10.896 10.3037 10.8266 10.3037 10.742V9.58216C10.3037 9.498 10.2763 9.4282 10.2211 9.37404C10.1661 9.31952 10.0956 9.29226 10.0101 9.29226H5.37794V8.22305H8.49652C9.71943 8.22305 10.7175 7.85495 11.4913 7.11771C12.2647 6.38123 12.6516 5.42989 12.6516 4.26362C12.6516 3.09813 12.2647 2.14677 11.4913 1.40954C10.7177 0.673048 9.71941 0.304199 8.49652 0.304199H3.5528C3.46711 0.304199 3.39693 0.331433 3.34179 0.385626C3.28678 0.44012 3.25921 0.509893 3.25921 0.594071V6.29338H1.20473C1.11906 6.29338 1.04885 6.32201 0.993715 6.37938C0.938728 6.43678 0.911133 6.50472 0.911133 6.58323V7.93313C0.911133 8.01778 0.938551 8.08713 0.993715 8.1416C1.04888 8.19612 1.1189 8.22303 1.20473 8.22303H3.25936V9.29223H1.20473C1.11906 9.29223 1.04885 9.31949 0.993715 9.37401C0.938728 9.42818 0.911133 9.49783 0.911133 9.58213V10.7419C0.911133 10.8266 0.938551 10.8959 0.993715 10.9504C1.04885 11.005 1.11903 11.0319 1.20473 11.0319ZM5.37794 2.23432H8.31308C8.96118 2.23432 9.48391 2.42151 9.88151 2.79601C10.2789 3.17053 10.4777 3.65997 10.4777 4.26377C10.4777 4.86788 10.2789 5.35747 9.88151 5.73154C9.48391 6.10637 8.96115 6.29355 8.31308 6.29355H5.37794V2.23432Z" fill="#535353"/>
</svg>
