<svg width="133" height="133" fill="none" xmlns="http://www.w3.org/2000/svg"><path d="M112.605 23.422a.418.418 0 01-.028-.032c-.013-.014-.026-.03-.041-.044l-.859-.937L94.653 3.824A11.703 11.703 0 0087.488.1l-.11-.013A11.693 11.693 0 0085.964 0H38.82c-5.293 0-9.6 4.305-9.6 9.598v4.669h-3.28c-4.706 0-8.536 3.83-8.536 8.538v97.147c0 7.195 5.853 13.048 13.048 13.048h59.635c4.706 0 8.536-3.83 8.536-8.536v-4.068h7.41c5.293 0 9.599-4.306 9.599-9.598V31.307c0-2.922-1.074-5.72-3.027-7.885zm-4.054 3.264H90.847a1.864 1.864 0 01-1.862-1.862V5.93a6.587 6.587 0 011.837 1.403l16.494 18.004 1.235 1.348zm-2.517 88.515H38.82a4.409 4.409 0 01-4.404-4.403V98.711a2.597 2.597 0 10-5.195 0v12.087c0 5.293 4.306 9.598 9.599 9.598h54.607v4.068a3.345 3.345 0 01-3.34 3.341H30.452c-4.33 0-7.852-3.523-7.852-7.853V22.805a3.345 3.345 0 013.34-3.343h3.28V77.93a2.598 2.598 0 005.196 0V9.598a4.409 4.409 0 014.404-4.403h44.97v19.629a7.065 7.065 0 007.057 7.057h19.59v78.917a4.409 4.409 0 01-4.403 4.403z" fill="#DDE0E3"/><path d="M48.331 37.014h27.773a2.598 2.598 0 000-5.196H48.33a2.598 2.598 0 100 5.195zm40.725 16.291H48.331a2.597 2.597 0 100 5.195h40.725a2.598 2.598 0 100-5.195zm0 21.486H48.331a2.598 2.598 0 100 5.196h40.725a2.598 2.598 0 100-5.196zm0 21.486H48.331a2.598 2.598 0 100 5.195h40.725a2.598 2.598 0 100-5.195zM31.82 85.726a2.6 2.6 0 00-2.598 2.6 2.597 2.597 0 105.195 0v-.006a2.596 2.596 0 00-2.598-2.594z" fill="#DDE0E3"/></svg>