<svg width="20" height="20" fill="none" xmlns="http://www.w3.org/2000/svg"><path d="M10 0a7.04 7.04 0 00-7.031 7.031c0 1.31.363 2.589 1.05 3.698l5.58 8.994a.586.586 0 00.499.277h.004a.586.586 0 00.498-.285l5.44-9.081a7.023 7.023 0 00.991-3.603A7.04 7.04 0 0010 0zm5.034 10.032l-4.945 8.256-5.075-8.177a5.852 5.852 0 01-.881-3.08A5.88 5.88 0 0110 1.164c3.23 0 5.863 2.636 5.863 5.867 0 1.06-.29 2.097-.83 3.001z" fill="#F3A800"/><path d="M10 3.516A3.52 3.52 0 006.484 7.03 3.511 3.511 0 0010 10.547a3.509 3.509 0 003.516-3.516A3.52 3.52 0 0010 3.516zm0 5.867A2.353 2.353 0 017.648 7.03 2.36 2.36 0 0110 4.68a2.357 2.357 0 012.348 2.351A2.349 2.349 0 0110 9.383z" fill="#F3A800"/></svg>