<svg width="37" height="37" fill="none" xmlns="http://www.w3.org/2000/svg"><path d="M14.23 36.266a1.733 1.733 0 100-3.467 1.733 1.733 0 000 3.467zM3.034 32.365a2.311 2.311 0 100-4.622 2.311 2.311 0 000 4.622zm30.933-12.423a2.311 2.311 0 100-4.623 2.311 2.311 0 000 4.623zM5.43 20.52a2.311 2.311 0 100-4.623 2.311 2.311 0 000 4.623zm19.177-3.908a1.734 1.734 0 100-3.467 1.734 1.734 0 000 3.467zm-11.418-3.467a1.733 1.733 0 100-3.467 1.733 1.733 0 000 3.467zm17.804 19.22a2.311 2.311 0 100-4.623 2.311 2.311 0 000 4.623zM18.5 27.02a3.178 3.178 0 100-6.356 3.178 3.178 0 000 6.356z" fill="#FFC94F"/><path d="M3.034 27.02A3.037 3.037 0 000 30.054a3.037 3.037 0 003.034 3.034 3.037 3.037 0 003.033-3.034 3.037 3.037 0 00-3.033-3.034zm0 4.623a1.59 1.59 0 01-1.59-1.59 1.59 1.59 0 011.59-1.588c.876 0 1.589.713 1.589 1.589a1.59 1.59 0 01-1.59 1.589zm30.932-10.979A3.037 3.037 0 0037 17.63a3.037 3.037 0 00-3.034-3.033 3.037 3.037 0 00-3.003 3.461l-9.178 3.686a3.923 3.923 0 00-.531-.661l2.627-3.858a2.459 2.459 0 003.18-2.347 2.458 2.458 0 00-2.455-2.455 2.458 2.458 0 00-2.456 2.456c0 .579.202 1.111.539 1.531l-2.629 3.86a3.861 3.861 0 00-.838-.259V.729a.722.722 0 00-1.445 0v19.28a.035.035 0 01-.014.003l-2.97-6.745c.521-.45.85-1.115.85-1.855a2.459 2.459 0 00-2.455-2.456 2.459 2.459 0 00-2.456 2.456 2.459 2.459 0 002.74 2.438l2.947 6.696a3.94 3.94 0 00-1.152 1.116L8.42 18.711a3.037 3.037 0 00-2.991-3.536 3.037 3.037 0 00-3.033 3.033 3.037 3.037 0 003.033 3.034 3.03 3.03 0 002.419-1.205l6.847 2.951a3.893 3.893 0 00-.021 1.612l-3.744 1.504a.722.722 0 00.538 1.34l3.746-1.504a3.92 3.92 0 001.194 1.191l-1.98 4.954a2.459 2.459 0 00-2.656 2.447 2.459 2.459 0 002.457 2.456 2.459 2.459 0 002.456-2.456c0-.77-.357-1.46-.915-1.91l1.979-4.953a3.896 3.896 0 003.86-1.475l6.424 3.195a3.037 3.037 0 002.96 3.698 3.037 3.037 0 003.033-3.033 3.037 3.037 0 00-3.033-3.034 3.03 3.03 0 00-2.315 1.076l-6.425-3.195a3.892 3.892 0 00.073-1.817l9.177-3.686a3.03 3.03 0 002.463 1.266zm-9.36-6.797a1.012 1.012 0 010 2.023 1.012 1.012 0 010-2.023zm-12.43-2.455a1.012 1.012 0 012.023 0 1.012 1.012 0 01-2.022 0zM5.43 19.797a1.59 1.59 0 01-1.589-1.589c0-.876.713-1.589 1.59-1.589.875 0 1.588.713 1.588 1.59a1.59 1.59 0 01-1.589 1.588zm8.8 15.746a1.012 1.012 0 010-2.022 1.012 1.012 0 010 2.022zm16.764-7.078a1.59 1.59 0 011.589 1.589 1.59 1.59 0 01-1.59 1.589 1.59 1.59 0 01-1.588-1.59 1.59 1.59 0 011.589-1.588zM18.5 26.298a2.459 2.459 0 01-2.456-2.456 2.458 2.458 0 012.456-2.456 2.458 2.458 0 012.456 2.456 2.459 2.459 0 01-2.456 2.456zm15.466-10.257a1.59 1.59 0 011.59 1.59 1.59 1.59 0 01-1.59 1.588 1.59 1.59 0 01-1.589-1.589 1.59 1.59 0 011.59-1.589z" fill="#535353"/><path d="M8.2 27.267a.724.724 0 000 1.445.728.728 0 00.722-.722.726.726 0 00-.722-.723z" fill="#535353"/></svg>