<svg width="33" height="34" fill="none" xmlns="http://www.w3.org/2000/svg"><g clip-path="url(#clip0)"><path d="M30.87 23.352V15.9h-3.83c-.13-.364-.284-.728-.456-1.088l2.712-2.713-4.026-4.027-1.319.047v6.185l-1.228 1.228a7.416 7.416 0 011.229 4.094 7.433 7.433 0 01-2.662 5.704v.151h-.19a7.413 7.413 0 01-4.6 1.597c-1.738 0-3.333-.6-4.6-1.597h-.19v-.15a7.433 7.433 0 01-1.504-9.682l-2.027-1.774a2.129 2.129 0 01-.728-1.602v-3.56l-.376.014-3.371 3.371 2.713 2.714c-.173.36-.326.724-.456 1.088H2.13v7.452h3.83c.13.364.282.727.455 1.088l-2.713 2.714 5.269 5.268 2.714-2.713c.36.174.724.326 1.088.456v3.832h7.451v-3.831c.364-.13.727-.283 1.088-.456l2.714 2.713 5.268-5.269-2.713-2.713c.174-.361.326-.725.456-1.088h3.833z" fill="#FFC94F"/><path d="M31.936 5.255c.587 0 1.064-.477 1.064-1.064V2.06l-.235-.159a5.282 5.282 0 00-2.959-.904 5.288 5.288 0 00-4.604 2.661h-.718a2.131 2.131 0 00-2.13-2.129c-.638 0-1.205.289-1.596.736a2.116 2.116 0 00-1.597-.736c-.638 0-1.206.289-1.597.736a2.116 2.116 0 00-1.596-.736c-.639 0-1.206.289-1.597.736a2.116 2.116 0 00-1.597-.736 2.131 2.131 0 00-2.129 2.13H7.798A5.288 5.288 0 003.194.996c-1.056 0-2.08.313-2.959.904L0 2.06v2.13c0 .588.477 1.065 1.065 1.065h2.66v2.13h-2.66A1.064 1.064 0 000 8.448v2.131l.235.159a5.283 5.283 0 006.684-.635v2.17c0 .766.332 1.496.91 2.003l1.692 1.48a7.965 7.965 0 00-1.005 3.87c0 4.402 3.582 7.983 7.984 7.983s7.984-3.581 7.984-7.984a7.927 7.927 0 00-1.085-4.017l1.085-1.085V8.981h.718a5.288 5.288 0 004.604 2.661c1.056 0 2.08-.312 2.959-.903L33 10.58V8.449c0-.587-.477-1.065-1.064-1.065h-2.662V5.255h2.662zm-9.581-2.661c.587 0 1.064.477 1.064 1.064v6.388a1.066 1.066 0 01-2.129 0V3.658c0-.587.478-1.064 1.065-1.064zm-3.194 0c.587 0 1.065.477 1.065 1.064v6.388a1.066 1.066 0 01-2.13 0V3.658c0-.587.478-1.064 1.065-1.064zm-3.193 0c.587 0 1.064.477 1.064 1.064v6.388a1.066 1.066 0 01-2.129 0V3.658c0-.587.478-1.064 1.065-1.064zM11.71 3.658a1.066 1.066 0 012.129 0v6.388c0 .464-.301.866-.726 1.008L11.71 9.807V3.658zm-8.516 6.92a4.215 4.215 0 01-2.13-.575V8.448H4.79V4.19H1.065V2.637a4.214 4.214 0 012.129-.575c1.623 0 3.083.906 3.81 2.366l.146.295h3.495v.938a2.382 2.382 0 00-1.33-.406A2.398 2.398 0 006.919 7.65v.705a4.227 4.227 0 01-3.725 2.223zm6.387 9.048c0-1.102.261-2.182.758-3.153l.838.734v6.834a6.886 6.886 0 01-1.596-4.415zm13.838 0c0 1.677-.6 3.216-1.596 4.415v-6.856l.792-.792c.525.992.804 2.093.804 3.233zm-2.66-2.881v5.01h-1.066v1.065h1.065v2.25a6.881 6.881 0 01-8.516 0v-2.25h6.387v-1.065h-6.387v-5.032l-3.713-3.249a1.596 1.596 0 01-.545-1.2V7.65a1.331 1.331 0 012.661 0v2.635l4.969 4.416.707-.795-2.363-2.1c.154-.105.297-.222.418-.36.391.443.956.729 1.592.729.639 0 1.206-.289 1.596-.736.391.447.959.736 1.597.736.639 0 1.206-.289 1.597-.736.39.447.958.736 1.597.736.39 0 .75-.113 1.064-.296v2.204l-2.66 2.662zm11.177-8.296v1.553a4.215 4.215 0 01-2.13.576 4.235 4.235 0 01-3.81-2.366l-.146-.295h-1.366V4.723h1.366l.146-.295a4.235 4.235 0 013.81-2.366c.752 0 1.482.198 2.13.575v1.554H28.21v4.258h3.726z" fill="#535353"/></g><defs><clipPath id="clip0"><path fill="#fff" transform="translate(0 .997)" d="M0 0h33v33H0z"/></clipPath></defs></svg>