<svg width="42" height="42" fill="none" xmlns="http://www.w3.org/2000/svg"><path d="M32.415 25.205a11.69 11.69 0 00-1.216-2.927l.808-1.615-1.34-1.34a11.3 11.3 0 01-1.578 1.778l-1.335 1.214-.232.422a8.478 8.478 0 012.01 5.48A8.531 8.531 0 0121 36.746a8.531 8.531 0 01-8.531-8.53 8.49 8.49 0 012.107-5.602L12.911 21.1a11.4 11.4 0 01-1.583-1.775l-1.335 1.336.808 1.615c-.538.92-.945 1.903-1.216 2.927l-1.71.57v4.883l1.71.57a11.69 11.69 0 001.216 2.928l-.808 1.615 3.454 3.453 1.615-.807c.92.537 1.902.945 2.926 1.214l.57 1.711h4.883l.57-1.71a11.713 11.713 0 002.927-1.215l1.615.808 3.454-3.454-.808-1.615c.538-.92.945-1.902 1.216-2.927l1.71-.57v-4.883l-1.71-.57z" fill="#FFC94F"/><path d="M28.563 8.84l1.155-.625a9.408 9.408 0 00-8.28-4.936H21V4.59h.438a8.093 8.093 0 017.125 4.249zm-8.771-4.212l-.127-1.306a9.34 9.34 0 00-1.413.247l.326 1.272a8.054 8.054 0 011.214-.213z" fill="#535353"/><path d="M40.48 10.25l-5.7-3.562V9.84h-1.663C31.82 4.488 27 .654 21.438.654h-.876c-4.51 0-8.664 2.564-10.71 6.562H7.219V4.064L1.52 7.624a1.83 1.83 0 00-.865 1.56c0 .64.323 1.223.865 1.562l5.698 3.56v-3.152H8.64a12.184 12.184 0 00-.109 1.53c0 3.383 1.436 6.628 3.938 8.903l1.211 1.1a9.16 9.16 0 00-1.867 5.53c0 5.065 4.12 9.187 9.187 9.187 5.066 0 9.188-4.122 9.188-9.188 0-2-.663-3.937-1.868-5.529l1.21-1.1c2.217-2.015 3.598-4.834 3.873-7.808h1.378v3.153l5.699-3.56c.54-.34.864-.924.864-1.562a1.83 1.83 0 00-.864-1.56zM20.562 1.965h.876c4.848 0 9.068 3.268 10.332 7.875h-8.145c-.742 0-1.419.257-1.969.674v-.018a3.285 3.285 0 00-3.281-3.28h-7.026c1.917-3.218 5.423-5.25 9.213-5.25zm5.032 24.938a.657.657 0 010 1.312h-9.188a.657.657 0 010-1.312h9.188zm.656 3.28a.657.657 0 01-.656.657h-9.188a.657.657 0 010-1.312h9.188c.362 0 .656.294.656.656zM5.906 9.842v2.098l-3.69-2.306a.526.526 0 010-.896l3.69-2.306V8.53h12.469c1.085 0 1.969.883 1.969 1.968v15.095H19.03v-14.44c0-.724-.588-1.313-1.312-1.313H5.906zm3.938 2.844c0-.514.048-1.025.121-1.531h7.754V25.59h-.704a5.117 5.117 0 00-1.623-3.122l-2.039-1.854a10.732 10.732 0 01-3.51-7.93zm3.281 15.531a7.86 7.86 0 011.52-4.637c.579.583.95 1.337 1.064 2.146a1.966 1.966 0 00-1.271 1.835c0 .506.197.963.511 1.312-.315.35-.511.807-.511 1.313 0 .854.55 1.576 1.312 1.848v2.036a7.85 7.85 0 01-2.625-5.853zm3.938 6.81v-2.872h7.875v2.871A7.816 7.816 0 0121 36.091a7.816 7.816 0 01-3.938-1.066zm9.187-.957v-2.036a1.966 1.966 0 001.313-1.848 1.96 1.96 0 00-.512-1.313c.315-.349.512-.806.512-1.312 0-.84-.53-1.553-1.272-1.835a3.796 3.796 0 011.063-2.146 7.851 7.851 0 011.521 4.637 7.85 7.85 0 01-2.625 5.853zm2.397-13.454L26.61 22.47a5.117 5.117 0 00-1.624 3.122h-.704V13.78h7.806a10.779 10.779 0 01-3.44 6.837zm11.136-8.357l-3.69 2.306v-2.098H24.282c-.724 0-1.312.589-1.312 1.313v11.81h-1.313V13.122c0-1.085.884-1.968 1.969-1.968h12.469V9.056l3.69 2.306a.526.526 0 010 .896z" fill="#535353"/></svg>