<svg width="164" height="164" fill="none" xmlns="http://www.w3.org/2000/svg"><path d="M92.25 112.75H61.5c0-30.75 16.4-41 27.675-47.15 4.1-2.05 7.175-4.1 9.225-6.15 5.125-5.125 3.075-12.3 2.05-14.35-3.075-7.175-10.25-14.35-23.575-14.35-21.525 0-25.625 19.475-25.625 23.575l-30.75-4.1C22.55 32.8 37.925 0 76.875 0c23.575 0 44.075 13.325 52.275 32.8 7.175 17.425 4.1 35.875-8.2 48.175-5.125 5.125-11.275 8.2-16.4 11.275-9.225 5.125-12.3 10.25-12.3 20.5zm5.125 30.75c0 11.326-9.174 20.5-20.5 20.5s-20.5-9.174-20.5-20.5 9.174-20.5 20.5-20.5 20.5 9.174 20.5 20.5z" fill="#3D4F64" fill-opacity=".15"/></svg>