<svg width="13" height="14" fill="none" xmlns="http://www.w3.org/2000/svg"><path d="M1.205 11.032h2.054v1.74a.279.279 0 00.294.29h1.532c.08 0 .148-.028.206-.082a.272.272 0 00.087-.208v-1.74h4.632a.28.28 0 00.294-.29v-1.16a.28.28 0 00-.294-.29H5.378V8.223h3.119c1.222 0 2.22-.368 2.994-1.105s1.16-1.688 1.16-2.854c0-1.166-.386-2.117-1.16-2.854C10.718.673 9.72.304 8.497.304H3.553a.288.288 0 00-.211.082.281.281 0 00-.083.208v5.7H1.205a.28.28 0 00-.211.085.285.285 0 00-.083.204v1.35a.28.28 0 00.294.29h2.054v1.07H1.205a.28.28 0 00-.294.29v1.159a.28.28 0 00.294.29zm4.173-8.798h2.935c.648 0 1.17.188 1.569.562.397.375.596.864.596 1.468s-.2 1.093-.596 1.468c-.398.374-.92.562-1.569.562H5.378v-4.06z" fill="#535353"/></svg>