<svg width="16" height="16" fill="none" xmlns="http://www.w3.org/2000/svg"><path fill-rule="evenodd" clip-rule="evenodd" d="M12.331 11.072l3.555 3.56a.445.445 0 01-.018.613l-.622.623a.444.444 0 01-.631 0l-3.555-3.56a2.31 2.31 0 01-.267-.32l-.666-.89a6.216 6.216 0 01-3.884 1.362A6.232 6.232 0 013.531.613a6.215 6.215 0 017.57 1.753 6.236 6.236 0 01-.04 7.78l.888.614c.139.089.267.194.382.312zM1.8 6.23a4.44 4.44 0 007.586 3.146 4.453 4.453 0 001.3-3.146 4.447 4.447 0 00-4.443-4.45A4.447 4.447 0 001.8 6.23z" fill="#000"/></svg>